<?xml version="1.0" encoding="UTF-8"?>
<svg xmlns="http://www.w3.org/2000/svg" viewBox="0 0 2000 2000">
  <defs>
    <style>
      .cls-1 {
        fill: #efb4ab;
      }

      .cls-1, .cls-2, .cls-3, .cls-4, .cls-5, .cls-6, .cls-7, .cls-8, .cls-9, .cls-10, .cls-11, .cls-12, .cls-13 {
        stroke-width: 0px;
      }

      .cls-2 {
        fill: #c5ddf9;
        opacity: .6;
      }

      .cls-3 {
        fill: #50bfa5;
        mix-blend-mode: multiply;
        opacity: .5;
      }

      .cls-4 {
        fill: #888889;
      }

      .cls-5 {
        fill: #0e2e35;
      }

      .cls-14 {
        isolation: isolate;
      }

      .cls-6 {
        fill: #f7a491;
      }

      .cls-7 {
        fill: #939393;
      }

      .cls-8 {
        mix-blend-mode: soft-light;
        opacity: .65;
      }

      .cls-8, .cls-10 {
        fill: #fff;
      }

      .cls-9 {
        fill: #37677c;
      }

      .cls-11 {
        fill: #437a99;
      }

      .cls-12 {
        fill: #e2aba6;
      }

      .cls-13 {
        fill: #184655;
      }
    </style>
  </defs>
  <g class="cls-14">
    <g id="Layer_1" data-name="Layer 1">
      <g>
        <path class="cls-9" d="M185.11,1746.76h1259.51c5.77,0,10.45,4.68,10.45,10.45v10.44c0,5.77-4.68,10.45-10.45,10.45H185.11c-5.77,0-10.45-4.68-10.45-10.45v-10.44c0-5.77,4.68-10.45,10.45-10.45Z" transform="translate(1629.72 3524.87) rotate(180)"/>
        <g>
          <path class="cls-1" d="M897.86,648.6c11.19-4.7,72.12,46.44,68.1,56.86-4.01,10.42,15.35,128.47,15.35,128.47l105.86-43.31.03.03c1.48-2.25,17.41-26.49,19.2-31.13,1.88-4.87,18.94-9.37,25.3-6.11,6.36,3.26-8.61,8.05-9.89,9.36-3.47,3.57,4.7,7.68,4.7,7.68,0,0-.97,11.03,1.91,3.18,2.87-7.85,11.01,7.98,9.07,12.38-3.77,8.54-32.58,18.68-36.94,18.86,0,0-107.78,89.32-151.19,102.28-7.51,2.24-19.71-50.09-34.57-85.97-14.86-35.87-51.9-157.9-16.92-172.59Z"/>
          <path class="cls-12" d="M625.69,1635.97s-15.89,15.51-16.26,21.2c-.36,5.69-1.41,66.67,5.08,72.36,6.49,5.69,25.55,9.73,19.42,16.13-4.63,4.84-40.26,3.8-63.88,2.5-6.89-.38-15.54-55.38-18.27-63.46-3.97-11.74-13.61-38.18-10-46.37,1.76-3.99,10.16-12.18,22-19.83,12.45-8.05,24.37-25.96,24.37-25.96l37.53,43.41Z"/>
          <path class="cls-12" d="M790.35,1672.08s-14.23,40.19-14.24,40.29c-1.06,6.37-5.22,22.09-5.22,27.88,0,21.74,98.05-18.46,76.08-28.09-1.99-.87-8.23-7.84-8.88-15.24-1.01-11.4,8.26-25.7,8.26-25.7l-55.99.86Z"/>
          <g>
            <path class="cls-4" d="M944.17,923.8s7.15,72.04,7.15,73.11c0,116.53,23.1,344.16,18.71,366.07-10.72,53.44-126.06,326.04-126.06,326.04l-62.34-7.45,81.24-326.38-29.89-131.37-42.3-259.68,153.51-40.34Z"/>
            <path class="cls-7" d="M734.94,987.52l-11.83,68.28-32,281-121.88,274.63s17.15,39.96,42.44,45.58l193.99-281.97,120.5-360.8-4.23-80.16-186.98,53.44Z"/>
          </g>
          <path class="cls-11" d="M972.73,751.22l-90.15,9.89s-3.96-70.87-3.96-104.67c0-41.01,3.49-93.84,8.45-92.7,13.9,3.19,32.45,10.99,43.77,26.18,30.77,41.31,41.9,161.31,41.9,161.31Z"/>
          <path class="cls-11" d="M926.56,649.2c1.81,12.51,35.04,352.46,35.04,352.46-157.4,76.02-244.25,13.54-244.25,13.54,0,0,5.15-238.72-1.02-271.21-4.08-21.5-9.18-164.34,4.75-168.35,17.88-5.13,38.37-10.58,60.71-12.9,19.07-1.98,93.15-3.13,106.41,1.32,0,0,30.74,32.55,38.35,85.14Z"/>
          <path class="cls-11" d="M564.56,1618.12s36.63,103.15,50.97,108.13c3.81,1.32,22.08,4.68,25.53,12.76,1.04,2.43,0,10.56,0,10.56h-76.36s-9.66-45.45-13.48-65.42c0,0-20.21-48.79-17.97-53.22,2.25-4.43,31.3-12.81,31.3-12.81Z"/>
          <path class="cls-11" d="M765.3,1747.43l11.23-35.47s23.58,9.98,35.37,8.31c11.79-1.66,34.81-8.31,34.81-8.31,47.06,15.49,85.62,23.01,78.61,35.47h-160.02Z"/>
          <path class="cls-6" d="M981.16,897.31c.36-.15,1.64-1.16,2.37-1.76-2.8-33.3-2.29-65.58,8.16-76.49-.25-.52-2.54-5.38-4.92-10.42-12.11,9.37-17.87,34.26-15.61,74.67.16,2.78.95,4.9,1.6,8.37,3.51,3.86,6.7,6.35,8.4,5.64Z"/>
          <path class="cls-1" d="M802.84,497.03l-10.15,66.87s37.05,79.62,59.17,72.71c18.56-5.79,7.14-76.24,7.14-76.24,0,0-10.12-37.83-7.08-56.77,3.03-18.93-49.08-6.58-49.08-6.58Z"/>
          <path class="cls-12" d="M851.93,503.6c3.03-18.93-49.08-6.58-49.08-6.58l-.84,5.54c1.53,3.71,3.39,6.89,5.65,9.32,11.64,12.53,29.84,20.05,45.57,20.62-1.57-10.21-2.54-21.15-1.3-28.91Z"/>
          <g>
            <path class="cls-1" d="M794.29,402.42c-1.47-.54-11.81,76.16,7.8,97.26,19.61,21.1,57.82,28.01,71.52,11.39,15.16-18.38,14.4-100.81-16.09-122.52-30.49-21.71-63.24,13.87-63.24,13.87Z"/>
            <path class="cls-5" d="M845.92,347.52c-23.57,4.81-38.83,19.21-44.44,25.35-10.7,1.26-25.25,7.18-40.26,32.05-18.47,30.58-4.83,64.45,16.67,81.07,21.5,16.62,21.2,35.82,21.2,35.82l3.4-9.93c2.51-7.52,3.53-15.5,2.69-23.39-.5-4.73-1.52-9.85-3.48-14.06-5.17-11.1,11.11-18.47,15.67-27.71,3.51-7.11,3.68-23.38,9.22-35.13l6.61-8.97s15.25-11.87,30.18-8.52c14.92,3.35,12.78-52.73-17.46-46.56Z"/>
            <path class="cls-6" d="M816.36,460.36c.16,9.36-4.1,17.02-9.5,17.11-5.4.09-9.91-7.42-10.06-16.77-.15-9.36,4.1-17.02,9.5-17.11,5.4-.09,9.91,7.42,10.06,16.78Z"/>
          </g>
          <path class="cls-10" d="M848.21,481.98l29.56-1.53s-.1,11.26-13.08,12.31c-15.83,1.28-16.48-10.78-16.48-10.78Z"/>
          <g>
            <path class="cls-5" d="M1159.15,737.52c-4.42-8.9-8.33-17.87-11.76-26.85l-161.52,80.21c-9.93,4.93-12.14,20.67-4.95,35.15,7.19,14.48,21.07,22.22,31,17.3l161.52-80.21c-5.08-8.16-9.87-16.69-14.29-25.59Z"/>
            <ellipse class="cls-2" cx="1455.54" cy="590.32" rx="327.44" ry="325.42" transform="translate(-110.64 709.26) rotate(-26.42)"/>
            <path class="cls-8" d="M1162.97,732.57c33.43,70.62,91.66,128.51,165.96,160.21l446.21-232.83c.14-.66.3-1.32.44-1.99,16.83-80.65,2.6-160.51-34.51-227.05l-578.11,301.65Z"/>
            <path class="cls-8" d="M1558.7,280.24l-412.64,215.31c-2.94,9.6-5.49,19.41-7.58,29.43-9.53,45.65-9.08,91.04-.2,133.91l557.28-290.78c-36.54-39.55-83.13-70.31-136.86-87.87Z"/>
            <path class="cls-13" d="M1787.08,425.67c-90.37-181.98-312.07-255.78-495.18-164.85-183.11,90.93-258.28,312.17-167.91,494.15,90.37,181.98,312.07,255.78,495.18,164.85,183.11-90.93,258.28-312.17,167.91-494.15ZM1162.27,735.96c-79.94-160.97-13.44-356.66,148.53-437.1,161.97-80.43,358.07-15.15,438.01,145.82,79.94,160.97,13.44,356.66-148.53,437.1-161.97,80.44-358.07,15.15-438.01-145.82Z"/>
            <path class="cls-3" d="M1766.96,435.66c-84.89-170.93-293.13-240.26-465.13-154.84-171.99,85.41-242.61,293.23-157.72,464.16,84.89,170.93,293.13,240.26,465.13,154.84,171.99-85.41,242.61-293.22,157.72-464.16ZM1162.27,735.96c-79.94-160.97-13.44-356.66,148.53-437.1,161.97-80.43,358.07-15.15,438.01,145.82,79.94,160.97,13.44,356.66-148.53,437.1-161.97,80.44-358.07,15.15-438.01-145.82Z"/>
            <path class="cls-13" d="M466.54,1094.74l-12.68-25.96c-12.67-25.94-1.92-57.24,24.02-69.91l465.51-229.07c25.94-12.67,57.24-1.92,69.91,24.02l12.68,25.96c12.67,25.94,1.92,57.24-24.02,69.91l-465.51,229.07c-25.94,12.67-57.24,1.92-69.91-24.02Z"/>
          </g>
          <path class="cls-1" d="M561.46,1005.26c-.1-.73-.11-1.46-.04-2.19,2.32-23.54,21.87-221.23,25.16-229.64,2.97-7.59,90.64-132.97,90.64-132.97l43.09,58.7-84.31,112.46c-1.89,7.15-32.31,140.6-32.31,140.6,0,0-6.24,24.32-9.03,38.9,1.27,3.51,2.52,6.82,3.63,9.55,2.79,5.81,6.09,10.59,9.08,14.6,3.77,5.05,10,16.09,10.77,19.04.89,3.43,2.5,10.57,3.41,14.88.91,4.31,2.16,9.32,2.37,11.66.13,1.42,1.59,4.26,2.72,6.26,1.68,2.98-1.19,6.51-4.44,5.43-3.06-1.02-5.45-4.98-6.92-7.45-4.15-6.97-6.36-19.71-7.39-19.03-1.03.67-4.67,22.28-5.24,24.72-.57,2.44-4.94,27.53-7.4,32.11-2.46,4.58-5.72,3.82-6.58.95-.74-2.47,2.72-37.57,2.72-37.57,0,0,.43-4.48-1.53-3.08-1.96,1.4-5.17,33.26-6.53,37.92-1.36,4.66-4.47,7.13-7.11,3.39-3.21-4.56,2.31-38.35,2.31-38.35,0,0,.62-4.25-1.2-3.85-1.82.4-4.09,27.55-5.5,29.9-1.41,2.35-4.98,3.19-6.68-.72-2-4.61,3.18-34.74,3.18-34.74,0,0-.26-2.4-1.39-1.6-1.13.8-4.73,23.81-7.07,25.94-1.97,1.79-3.6.05-3.6.05-4.3-2.93,2.29-24.82,2.22-35.7-.06-10.88,4.98-23.11,3.48-36.07-.09-.81-.36-2.81-.53-4.07Z"/>
          <path class="cls-11" d="M608.73,719.87l74.89,50.28s42.21-62.81,64.86-85.17c28.38-28.01-10.34-113.82-28.62-108.96-40.9,10.86-111.13,143.85-111.13,143.85Z"/>
          <path class="cls-1" d="M1120.13,772.07c0-15.23,5.41-3.59,7.4-.46-2.85-16.19,4.8-4.77,7.12-.96,5.59,8.83,2.85,15.37,2.85,15.37-13.38,8.54-32.27,18.59-33.02,15.09-.75-3.5,1.71-27.71,4.55-29.61,2.85-1.89,3.63,11,3.63,11,.09-6.72,1.49-25.8,7.47-10.43Z"/>
        </g>
      </g>
    </g>
  </g>
</svg>